<svg width="19" height="18" viewBox="0 0 19 18" fill="none" xmlns="http://www.w3.org/2000/svg">
<path d="M5.66772 13.0619V14.6946" stroke="#6D737A" stroke-width="1.08848" stroke-linecap="round" stroke-linejoin="round"/>
<path d="M13.2871 13.0619V14.6946" stroke="#6D737A" stroke-width="1.08848" stroke-linecap="round" stroke-linejoin="round"/>
<path d="M4.5791 7.07527V3.5377C4.5791 3.17684 4.72245 2.83077 4.97761 2.5756C5.23278 2.32044 5.57885 2.17709 5.9397 2.17709C6.30056 2.17709 6.64663 2.32044 6.9018 2.5756C7.15696 2.83077 7.30031 3.17684 7.30031 3.5377" stroke="#6D737A" stroke-width="1.08848" stroke-linecap="round" stroke-linejoin="round"/>
<path d="M14.3757 6.53102H10.0217V9.79647H14.3757V6.53102Z" stroke="#6D737A" stroke-width="1.08848" stroke-linecap="round" stroke-linejoin="round"/>
<path d="M14.3755 7.07526H16.5524C16.6968 7.07526 16.8352 7.1326 16.9373 7.23466C17.0393 7.33673 17.0967 7.47516 17.0967 7.6195V9.79646C17.0967 10.6625 16.7526 11.4931 16.1402 12.1055C15.5278 12.7179 14.6973 13.0619 13.8312 13.0619H5.12336C4.25731 13.0619 3.42673 12.7179 2.81434 12.1055C2.20195 11.4931 1.85791 10.6625 1.85791 9.79646V7.6195C1.85791 7.47516 1.91525 7.33673 2.01731 7.23466C2.11938 7.1326 2.25781 7.07526 2.40215 7.07526H10.0215" stroke="#6D737A" stroke-width="1.08848" stroke-linecap="round" stroke-linejoin="round"/>
</svg>
