<svg width="19" height="18" viewBox="0 0 19 18" fill="none" xmlns="http://www.w3.org/2000/svg">
<path d="M5.66785 13.0619V14.6946" stroke="#6D737A" stroke-width="1.08848" stroke-linecap="round" stroke-linejoin="round"/>
<path d="M13.2872 13.0619V14.6946" stroke="#6D737A" stroke-width="1.08848" stroke-linecap="round" stroke-linejoin="round"/>
<path d="M4.57935 7.07527V3.5377C4.57935 3.17684 4.72269 2.83077 4.97786 2.5756C5.23302 2.32044 5.57909 2.17709 5.93995 2.17709C6.3008 2.17709 6.64688 2.32044 6.90204 2.5756C7.1572 2.83077 7.30055 3.17684 7.30055 3.5377" stroke="#6D737A" stroke-width="1.08848" stroke-linecap="round" stroke-linejoin="round"/>
<path d="M14.3757 6.53102H10.0217V9.79647H14.3757V6.53102Z" stroke="#6D737A" stroke-width="1.08848" stroke-linecap="round" stroke-linejoin="round"/>
<path d="M14.3757 7.07526H16.5527C16.697 7.07526 16.8354 7.1326 16.9375 7.23466C17.0396 7.33673 17.0969 7.47516 17.0969 7.6195V9.79646C17.0969 10.6625 16.7529 11.4931 16.1405 12.1055C15.5281 12.7179 14.6975 13.0619 13.8315 13.0619H5.1236C4.25755 13.0619 3.42697 12.7179 2.81458 12.1055C2.20219 11.4931 1.85815 10.6625 1.85815 9.79646V7.6195C1.85815 7.47516 1.91549 7.33673 2.01756 7.23466C2.11962 7.1326 2.25805 7.07526 2.4024 7.07526H10.0218" stroke="#6D737A" stroke-width="1.08848" stroke-linecap="round" stroke-linejoin="round"/>
</svg>
