<svg width="18" height="18" viewBox="0 0 18 18" fill="none" xmlns="http://www.w3.org/2000/svg">
<path d="M1.0885 8.16374H16.3273" stroke="#6D737A" stroke-width="1.08848" stroke-linecap="round" stroke-linejoin="round"/>
<path d="M15.2388 12.5177V14.1504C15.2388 14.2947 15.1814 14.4332 15.0794 14.5352C14.9773 14.6373 14.8389 14.6946 14.6945 14.6946H13.0618C12.9175 14.6946 12.779 14.6373 12.677 14.5352C12.5749 14.4332 12.5176 14.2947 12.5176 14.1504V12.5177" stroke="#6D737A" stroke-width="1.08848" stroke-linecap="round" stroke-linejoin="round"/>
<path d="M4.89821 12.5177V14.1504C4.89821 14.2947 4.84087 14.4332 4.7388 14.5352C4.63674 14.6373 4.49831 14.6946 4.35397 14.6946H2.72124C2.5769 14.6946 2.43847 14.6373 2.33641 14.5352C2.23434 14.4332 2.177 14.2947 2.177 14.1504V12.5177" stroke="#6D737A" stroke-width="1.08848" stroke-linecap="round" stroke-linejoin="round"/>
<path d="M4.35388 10.3407H5.44236" stroke="#6D737A" stroke-width="1.08848" stroke-linecap="round" stroke-linejoin="round"/>
<path d="M11.9733 10.3407H13.0617" stroke="#6D737A" stroke-width="1.08848" stroke-linecap="round" stroke-linejoin="round"/>
<path d="M15.2388 8.16374L13.2047 3.59211C13.1625 3.49539 13.0931 3.41303 13.0049 3.35506C12.9167 3.29708 12.8136 3.26599 12.7081 3.26556H4.70772C4.6022 3.26599 4.49907 3.29708 4.4109 3.35506C4.32273 3.41303 4.25331 3.49539 4.2111 3.59211L2.177 8.16374V12.5177H15.2388V8.16374Z" stroke="#6D737A" stroke-width="1.08848" stroke-linecap="round" stroke-linejoin="round"/>
</svg>
