<svg width="16" height="16" viewBox="0 0 16 16" fill="none" xmlns="http://www.w3.org/2000/svg">
<path d="M7.81469 13.1922C7.81469 13.1922 2.14551 10.0174 2.14551 6.16238C2.14551 5.48088 2.38163 4.82043 2.81369 4.2934C3.24575 3.76636 3.84707 3.40531 4.51534 3.27165C5.1836 3.138 5.87753 3.24001 6.47907 3.56032C7.0806 3.88063 7.55257 4.39947 7.81469 5.02854V5.02854C8.0768 4.39947 8.54878 3.88063 9.15031 3.56032C9.75184 3.24001 10.4458 3.138 11.114 3.27165C11.7823 3.40531 12.3836 3.76636 12.8157 4.2934C13.2477 4.82043 13.4839 5.48088 13.4839 6.16238C13.4839 10.0174 7.81469 13.1922 7.81469 13.1922Z" stroke="#4A60A1" stroke-width="0.936687" stroke-linecap="round" stroke-linejoin="round"/>
</svg>
