<svg width="16" height="16" viewBox="0 0 16 16" fill="none" xmlns="http://www.w3.org/2000/svg">
<path d="M4.16008 10.0174C5.16201 10.0174 5.97422 9.2052 5.97422 8.20328C5.97422 7.20136 5.16201 6.38914 4.16008 6.38914C3.15816 6.38914 2.34595 7.20136 2.34595 8.20328C2.34595 9.2052 3.15816 10.0174 4.16008 10.0174Z" stroke="#4A60A1" stroke-width="0.936687" stroke-linecap="round" stroke-linejoin="round"/>
<path d="M10.5096 14.0992C11.5115 14.0992 12.3237 13.287 12.3237 12.2851C12.3237 11.2832 11.5115 10.471 10.5096 10.471C9.50765 10.471 8.69543 11.2832 8.69543 12.2851C8.69543 13.287 9.50765 14.0992 10.5096 14.0992Z" stroke="#4A60A1" stroke-width="0.936687" stroke-linecap="round" stroke-linejoin="round"/>
<path d="M10.5096 5.9356C11.5115 5.9356 12.3237 5.12339 12.3237 4.12146C12.3237 3.11954 11.5115 2.30733 10.5096 2.30733C9.50765 2.30733 8.69543 3.11954 8.69543 4.12146C8.69543 5.12339 9.50765 5.9356 10.5096 5.9356Z" stroke="#4A60A1" stroke-width="0.936687" stroke-linecap="round" stroke-linejoin="round"/>
<path d="M8.98464 5.10225L5.68518 7.22252" stroke="#4A60A1" stroke-width="0.936687" stroke-linecap="round" stroke-linejoin="round"/>
<path d="M5.68518 9.18405L8.98464 11.3043" stroke="#4A60A1" stroke-width="0.936687" stroke-linecap="round" stroke-linejoin="round"/>
</svg>
