<svg width="16" height="16" viewBox="0 0 16 16" fill="none" xmlns="http://www.w3.org/2000/svg">
<path d="M4.16008 10.0174C5.16201 10.0174 5.97422 9.2052 5.97422 8.20328C5.97422 7.20136 5.16201 6.38914 4.16008 6.38914C3.15816 6.38914 2.34595 7.20136 2.34595 8.20328C2.34595 9.2052 3.15816 10.0174 4.16008 10.0174Z" stroke="#4A60A1" stroke-width="0.936687" stroke-linecap="round" stroke-linejoin="round"/>
<path d="M10.5097 14.0992C11.5116 14.0992 12.3238 13.287 12.3238 12.2851C12.3238 11.2832 11.5116 10.471 10.5097 10.471C9.50777 10.471 8.69556 11.2832 8.69556 12.2851C8.69556 13.287 9.50777 14.0992 10.5097 14.0992Z" stroke="#4A60A1" stroke-width="0.936687" stroke-linecap="round" stroke-linejoin="round"/>
<path d="M10.5097 5.9356C11.5116 5.9356 12.3238 5.12339 12.3238 4.12146C12.3238 3.11954 11.5116 2.30733 10.5097 2.30733C9.50777 2.30733 8.69556 3.11954 8.69556 4.12146C8.69556 5.12339 9.50777 5.9356 10.5097 5.9356Z" stroke="#4A60A1" stroke-width="0.936687" stroke-linecap="round" stroke-linejoin="round"/>
<path d="M8.98477 5.10225L5.6853 7.22252" stroke="#4A60A1" stroke-width="0.936687" stroke-linecap="round" stroke-linejoin="round"/>
<path d="M5.6853 9.18405L8.98477 11.3043" stroke="#4A60A1" stroke-width="0.936687" stroke-linecap="round" stroke-linejoin="round"/>
</svg>
